# xmcd
#
# Track frame offsets:
#	150
#	12350
#	24010
#	34070
#	44882
#	56525
#	65987
#	79145
#	92932
#	105560
#	119330
#	128315
#	142100
#	154702
#	166252
#	177572
#	188365
#	198145
#	208107
#	218012
#	232665
#	243697
#	253657
#	265270
#
# Disc length: 3687 seconds
#
# Revision: 2
# Processed by: cddbd v1.5.2PL0 Copyright (c) Steve Scherf et al.
# Submitted via: EZCDAudioConverter 1.3.4.1
#
DISCID=4d0e6518
DTITLE=Guess Who - Shakin' All Over
DYEAR=2001
DGENRE=
TTITLE0=Shakin' All Over
TTITLE1=Tuff E Nuff
TTITLE2=I'd Rather Be Alone
TTITLE3=All Right
TTITLE4=Baby Feelin'
TTITLE5=You Know He Did
TTITLE6=Believe Me
TTITLE7=Clock On The Wall
TTITLE8=It's My Pride
TTITLE9=If You Don't Want Me
TTITLE10=Baby's Birthday
TTITLE11=Made In England
TTITLE12=Seven Long Years
TTITLE13=Gonna Search
TTITLE14=Stop Teasing Me
TTITLE15=Hey Ho (What You Do To Me)
TTITLE16=One Day
TTITLE17=I Should Have Realized
TTITLE18=Use Your Imagination
TTITLE19=Don't Act So Bad
TTITLE20=As
TTITLE21=Just A Matter Of Time
TTITLE22=Flying On The Ground Is Wrong
TTITLE23=Goodnight Goodnight
EXTD=
EXTT0=
EXTT1=
EXTT2=
EXTT3=
EXTT4=
EXTT5=
EXTT6=
EXTT7=
EXTT8=
EXTT9=
EXTT10=
EXTT11=
EXTT12=
EXTT13=
EXTT14=
EXTT15=
EXTT16=
EXTT17=
EXTT18=
EXTT19=
EXTT20=
EXTT21=
EXTT22=
EXTT23=
PLAYORDER=
